:SAMPLES-PER-SECOND 30
:FULLY-SPECIFIED
:DEGREES
614
root  -68.4003 40.8359 -1.38678 -29.4683 -79.9686 41.7837
RightUpLeg  -17.0718 -12.7484 -9.76191
RightLeg  7.73668 -1.7943 0.639181
RightFoot  -1.57594 -0.336034 3.80252
RightToes  -3.31784e-009 0 -3.6325e-017
Spine  16.7361 3.33229 -0.321419
Spine1  -0.246257 3.40845 -2.59584
HEad  -30.5497 9.65775 -23.4456
LeftShoulder1  -0.429698 4.59489 -33.3303
LeftArm  -0.840556 9.91245 -31.8447
LeftForeArm  18.2182 -25.3429 -4.4751
LeftHand  0.0543014 8.52578 3.40175
RightShoulder  -1.06863 -6.30275 31.6046
RightArm  13.1832 -11.9424 41.2983
RightForeArm  15.9831 6.80503 6.53759
RightHand  -0.38184 4.79239 -4.64551
LeftUpLeg  -17.9567 1.91623 -0.744915
LeftLeg  -4.28943 13.2422 -1.68022
LeftFoot  15.9764 0.581199 -2.79444
LeftToes  1.28511e-009 -3.60458e-011 6.16399e-011
615
root  -68.8209 40.8856 -1.23901 -22.311 -77.6842 33.9912
RightUpLeg  -15.0871 -13.9798 -10.7622
RightLeg  8.13057 -3.34211 1.24342
RightFoot  -2.31314 -0.305422 3.67216
RightToes  -3.31784e-009 0 -3.6325e-017
Spine  16.5328 2.19917 1.72473
Spine1  1.59795 3.03143 -4.46251
HEad  -35.0968 11.0198 -26.8672
LeftShoulder1  -0.580414 4.93138 -34.5252
LeftArm  -5.04584 13.3446 -30.3729
LeftForeArm  16.6754 -20.6321 -4.09468
LeftHand  0.0592837 9.76973 2.81556
RightShoulder  -1.23797 -6.72804 31.866
RightArm  11.3721 -15.2269 39.9452
RightForeArm  12.3228 7.63466 5.64767
RightHand  -0.350658 4.84267 -4.27011
LeftUpLeg  -17.4739 1.34815 -2.3789
LeftLeg  -4.39161 21.9771 -2.66869
LeftFoot  15.8624 -0.150486 0.221357
LeftToes  1.28511e-009 -3.60458e-011 6.16399e-011
616
root  -69.2506 40.8364 -1.02505 -14.1343 -74.3634 25.6969
RightUpLeg  -13.4728 -15.2983 -11.5829
RightLeg  9.00668 -5.77523 1.91879
RightFoot  -3.66005 -0.293364 3.99164
RightToes  -3.31784e-009 0 -3.6325e-017
Spine  14.5089 1.22995 3.39012
Spine1  4.22821 2.30421 -4.41501
HEad  -38.3228 12.6924 -29.7972
LeftShoulder1  -0.568311 4.88929 -34.8413
LeftArm  -9.23272 16.3704 -30.5767
LeftForeArm  14.915 -15.0436 -4.46437
LeftHand  0.124053 10.1619 4.17157
RightShoulder  -1.09791 -6.45169 30.7059
RightArm  11.0019 -17.1736 39.7474
RightForeArm  11.8288 7.47899 5.48085
RightHand  -0.336786 4.43694 -4.26445
LeftUpLeg  -17.9392 0.463709 -3.98927
LeftLeg  -4.02339 30.6765 -3.26359
LeftFoot  14.3527 -0.948972 3.79462
LeftToes  1.28511e-009 -3.60458e-011 6.16399e-011
617
root  -69.7639 40.7435 -0.945961 -7.24728 -70.9037 18.6952
RightUpLeg  -11.9322 -15.8794 -11.488
RightLeg  10.12 -8.80457 2.15011
RightFoot  -5.36139 -0.259636 4.28401
RightToes  -3.31784e-009 0 -3.6325e-017
Spine  12.3666 1.22932 3.88474
Spine1  5.53389 1.96173 -2.54475
HEad  -38.4038 14.6792 -31.1794
LeftShoulder1  -0.56004 4.88638 -34.3437
LeftArm  -11.1753 19.6532 -31.9553
LeftForeArm  14.9713 -10.4436 -4.33088
LeftHand  0.097991 9.89032 3.71627
RightShoulder  -1.05584 -6.37158 30.2681
RightArm  12.2943 -18.3555 38.2058
RightForeArm  13.834 7.20662 5.75393
RightHand  -0.346426 3.8366 -4.61552
LeftUpLeg  -18.3497 0.711351 -4.80446
LeftLeg  -3.72088 38.7332 -4.48161
LeftFoot  11.1343 -1.48888 7.15502
LeftToes  1.28511e-009 -3.60458e-011 6.16399e-011
618
root  -70.374 40.6665 -0.917655 -4.5451 -68.2285 15.0881
RightUpLeg  -9.77911 -16.4532 -11.1384
RightLeg  11.2304 -10.7369 1.72595
RightFoot  -7.05345 -0.232152 4.88543
RightToes  -3.31784e-009 0 -3.6325e-017
Spine  11.49 2.09384 3.3187
Spine1  5.62583 2.57453 -1.02742
HEad  -36.9491 15.6376 -30.2136
LeftShoulder1  -0.616758 5.03666 -34.0699
LeftArm  -9.73105 22.0024 -31.4602
LeftForeArm  17.0762 -7.44303 -4.80227
LeftHand  0.0777631 10.5193 3.04711
RightShoulder  -1.16574 -6.63695 30.6892
RightArm  13.927 -19.46 35.9532
RightForeArm  14.8589 7.62024 6.09779
RightHand  -0.309987 3.50295 -4.29693
LeftUpLeg  -16.865 0.866991 -5.55407
LeftLeg  -5.53416 45.823 -6.09904
LeftFoot  8.69796 -1.97644 10.816
LeftToes  1.28511e-009 -3.60458e-011 6.16399e-011
619
root  -71.0152 40.6275 -0.750214 -3.12817 -64.4629 13.0924
RightUpLeg  -7.58631 -19.6354 -11.4078
RightLeg  12.42 -10.994 1.22907
RightFoot  -8.40897 -0.199479 5.60142
RightToes  -3.31784e-009 0 -3.6325e-017
Spine  10.1124 2.26826 1.22812
Spine1  5.7539 2.14543 1.55962
HEad  -36.3162 17.3003 -30.157
LeftShoulder1  -0.880973 5.64705 -34.8479
LeftArm  -8.26332 25.3697 -30.0679
LeftForeArm  21.5836 -7.95655 -5.37049
LeftHand  -0.00950044 11.7344 0.898975
RightShoulder  -1.13535 -6.5869 30.2979
RightArm  14.7234 -19.8504 34.3066
RightForeArm  14.5217 8.00231 6.1721
RightHand  -0.246811 3.41975 -3.48485
LeftUpLeg  -16.0008 0.346902 -6.6312
LeftLeg  -4.90366 46.3412 -5.18964
LeftFoot  8.1075 -2.34692 13.3168
LeftToes  1.28511e-009 -3.60458e-011 6.16399e-011
620
root  -71.6439 40.5039 -0.517413 -3.74347 -59.2724 13.5579
RightUpLeg  -6.24066 -27.7801 -12.8003
RightLeg  15.7376 -7.12435 -0.0874792
RightFoot  -10.5612 -0.119921 7.46462
RightToes  -3.31784e-009 0 -3.6325e-017
Spine  8.09299 1.92152 -1.30905
Spine1  6.54583 1.22523 3.283
HEad  -36.6661 20.2431 -30.9934
LeftShoulder1  -1.09241 6.09347 -35.9701
LeftArm  -7.55025 26.0795 -28.5056
LeftForeArm  25.3903 -7.59913 -5.53657
LeftHand  -0.0385638 10.6765 0.427551
RightShoulder  -1.14263 -6.63302 29.923
RightArm  13.6252 -19.574 34.0428
RightForeArm  13.5145 8.73096 5.6678
RightHand  -0.109556 3.71302 -1.66516
LeftUpLeg  -15.5439 -0.0859406 -8.08772
LeftLeg  -0.975561 40.9727 -2.81693
LeftFoot  6.29595 -1.70349 10.6768
LeftToes  1.28511e-009 -3.60458e-011 6.16399e-011
621
root  -72.2622 40.3357 -0.247776 -5.11234 -53.4149 14.6461
RightUpLeg  -5.40623 -35.3721 -15.4225
RightLeg  21.4896 -3.67434 -2.09487
RightFoot  -12.2181 0.00327904 11.2544
RightToes  -3.31784e-009 0 -3.6325e-017
Spine  6.69075 1.29699 -1.78856
Spine1  7.33742 1.05706 1.19289
HEad  -35.5126 19.8934 -29.6469
LeftShoulder1  -0.98613 5.90751 -34.8178
LeftArm  -6.53688 26.1632 -28.0801
LeftForeArm  26.4151 -8.29954 -6.01609
LeftHand  -0.0576912 10.1164 -0.0457152
RightShoulder  -1.42913 -7.29499 31.2356
RightArm  12.8077 -18.6754 34.229
RightForeArm  12.4876 9.61691 5.36252
RightHand  -0.134825 4.37003 -1.89452
LeftUpLeg  -14.6468 -0.584212 -9.88859
LeftLeg  2.4436 35.0852 -1.56178
LeftFoot  4.1831 -1.14324 8.20245
LeftToes  1.28511e-009 -3.60458e-011 6.16399e-011
